<svg xmlns="http://www.w3.org/2000/svg" xmlns:xlink="http://www.w3.org/1999/xlink" width="500" zoomAndPan="magnify" viewBox="0 0 375 374.999991" height="500" preserveAspectRatio="xMidYMid meet" version="1.0"><defs><g/><clipPath id="a88be948ea"><path d="M 20.109375 159.902344 L 79.851562 159.902344 L 79.851562 215 L 20.109375 215 Z M 20.109375 159.902344 " clip-rule="nonzero"/></clipPath><clipPath id="ea3dad28f4"><path d="M 103.804688 159.902344 L 163.546875 159.902344 L 163.546875 215 L 103.804688 215 Z M 103.804688 159.902344 " clip-rule="nonzero"/></clipPath><clipPath id="dbf6094ce1"><path d="M 187.5 159.902344 L 247.242188 159.902344 L 247.242188 215 L 187.5 215 Z M 187.5 159.902344 " clip-rule="nonzero"/></clipPath><clipPath id="70efc4052d"><path d="M 277.757812 159.902344 L 337.5 159.902344 L 337.5 215 L 277.757812 215 Z M 277.757812 159.902344 " clip-rule="nonzero"/></clipPath></defs><g clip-path="url(#a88be948ea)"><path fill="#00bf63" d="M 20.109375 159.902344 L 79.875 159.902344 L 79.875 214.980469 L 20.109375 214.980469 Z M 20.109375 159.902344 " fill-opacity="1" fill-rule="nonzero"/></g><g clip-path="url(#ea3dad28f4)"><path fill="#ffbd59" d="M 103.804688 159.902344 L 163.570312 159.902344 L 163.570312 214.980469 L 103.804688 214.980469 Z M 103.804688 159.902344 " fill-opacity="1" fill-rule="nonzero"/></g><g clip-path="url(#dbf6094ce1)"><path fill="#919191" d="M 187.5 159.902344 L 247.265625 159.902344 L 247.265625 214.980469 L 187.5 214.980469 Z M 187.5 159.902344 " fill-opacity="1" fill-rule="nonzero"/></g><g clip-path="url(#70efc4052d)"><path fill="#00bf63" d="M 277.757812 159.902344 L 337.523438 159.902344 L 337.523438 214.980469 L 277.757812 214.980469 Z M 277.757812 159.902344 " fill-opacity="1" fill-rule="nonzero"/></g><g fill="#ffffff" fill-opacity="1"><g transform="translate(36.27455, 202.499987)"><g><path d="M 9.1875 0 L 3.71875 0 L 3.71875 -28.5625 L 10.171875 -28.5625 L 21.640625 -10.15625 L 22.15625 -10.234375 L 22.15625 -28.5625 L 27.578125 -28.5625 L 27.578125 0 L 21.796875 0 L 9.671875 -19.65625 L 9.1875 -19.578125 Z M 9.1875 0 "/></g></g></g><g fill="#ffffff" fill-opacity="1"><g transform="translate(120.180421, 202.499987)"><g><path d="M 9.359375 -12.546875 L 9.359375 -4.734375 L 22.984375 -4.734375 L 22.984375 0 L 3.71875 0 L 3.71875 -28.5625 L 22.671875 -28.5625 L 22.671875 -23.828125 L 9.359375 -23.828125 L 9.359375 -17.15625 L 21 -17.15625 L 21 -12.546875 Z M 9.359375 -12.546875 "/></g></g></g><g fill="#ffffff" fill-opacity="1"><g transform="translate(203.499982, 202.499987)"><g><path d="M 9.1875 0 L 3.71875 0 L 3.71875 -28.5625 L 10.171875 -28.5625 L 21.640625 -10.15625 L 22.15625 -10.234375 L 22.15625 -28.5625 L 27.578125 -28.5625 L 27.578125 0 L 21.796875 0 L 9.671875 -19.65625 L 9.1875 -19.578125 Z M 9.1875 0 "/></g></g></g><g fill="#ffffff" fill-opacity="1"><g transform="translate(293.759692, 202.499987)"><g><path d="M 15.5625 0.40625 C 12.945312 0.40625 10.640625 -0.125 8.640625 -1.1875 C 6.640625 -2.257812 5.070312 -3.890625 3.9375 -6.078125 C 2.8125 -8.273438 2.25 -11.007812 2.25 -14.28125 C 2.25 -17.550781 2.8125 -20.28125 3.9375 -22.46875 C 5.070312 -24.664062 6.640625 -26.296875 8.640625 -27.359375 C 10.640625 -28.429688 12.945312 -28.96875 15.5625 -28.96875 C 18.1875 -28.96875 20.492188 -28.4375 22.484375 -27.375 C 24.472656 -26.3125 26.03125 -24.679688 27.15625 -22.484375 C 28.28125 -20.285156 28.84375 -17.550781 28.84375 -14.28125 C 28.84375 -11.007812 28.28125 -8.273438 27.15625 -6.078125 C 26.03125 -3.878906 24.472656 -2.25 22.484375 -1.1875 C 20.492188 -0.125 18.1875 0.40625 15.5625 0.40625 Z M 15.5625 -4.5 C 17.988281 -4.5 19.835938 -5.273438 21.109375 -6.828125 C 22.390625 -8.378906 23.03125 -10.863281 23.03125 -14.28125 C 23.03125 -17.6875 22.390625 -20.171875 21.109375 -21.734375 C 19.835938 -23.296875 17.988281 -24.078125 15.5625 -24.078125 C 13.132812 -24.078125 11.273438 -23.296875 9.984375 -21.734375 C 8.703125 -20.171875 8.0625 -17.6875 8.0625 -14.28125 C 8.0625 -10.863281 8.703125 -8.378906 9.984375 -6.828125 C 11.273438 -5.273438 13.132812 -4.5 15.5625 -4.5 Z M 15.5625 -4.5 "/></g></g></g></svg>